<svg xmlns="http://www.w3.org/2000/svg" viewBox="0 0 1183.78 641.54"><defs><style>.cls-1{fill:#e6e7e8;}.cls-2{fill:#6d6e71;}.cls-3{fill:#fff;}.cls-4{fill:#f1f2f2;}.cls-11,.cls-14,.cls-15,.cls-16,.cls-17,.cls-18,.cls-19,.cls-20,.cls-21,.cls-5,.cls-6,.cls-7,.cls-8{fill:none;stroke-miterlimit:10;}.cls-5{stroke:#65cbe2;}.cls-5,.cls-6,.cls-7,.cls-8{stroke-width:0.33px;}.cls-6{stroke:#f7ec30;}.cls-7{stroke:#ee324f;}.cls-8{stroke:#6dbe45;}.cls-9{fill:#58595b;}.cls-10{fill:#231f20;}.cls-11{stroke:#6d6e71;stroke-width:0.5px;}.cls-12{fill:#27aae1;}.cls-13{fill:#65cbe2;}.cls-14{stroke:#939598;stroke-width:2.68px;}.cls-15{stroke:#00aeef;}.cls-15,.cls-16,.cls-17,.cls-18{stroke-width:8.05px;}.cls-16{stroke:#2b3990;}.cls-17{stroke:#2bb673;}.cls-18{stroke:#ec008c;}.cls-19{stroke:#f9ed32;stroke-width:41.59px;opacity:0.5;}.cls-20{stroke:#231f20;stroke-width:1.34px;}.cls-21{stroke:#d1d3d4;stroke-width:6px;}.cls-22{fill:#d1d3d4;}</style></defs><title>empty-workspace-graphic-color</title><g id="screen_framework" data-name="screen framework"><rect class="cls-1" x="322.82" y="144" width="511" height="338" rx="1" ry="1"/><path class="cls-2" d="M323.82,144h158.5a0,0,0,0,1,0,0V482a0,0,0,0,1,0,0H323.82a1,1,0,0,1-1-1V145A1,1,0,0,1,323.82,144Z"/><rect class="cls-3" x="490.32" y="152" width="336" height="323" rx="1" ry="1"/></g><g id="sidebar_contents" data-name="sidebar contents"><g id="Loom_logo" data-name="Loom logo"><path class="cls-4" d="M501.27,347V337h.87v9.29h5.19V347Z" transform="translate(-171.68 -187)"/><path class="cls-4" d="M561.26,337H562v10.08h-.82V339l-3.54,8.07H557l-3.57-8v8h-.82V337h.72l4,9Z" transform="translate(-171.68 -187)"/><path class="cls-4" d="M546.08,337.42a4.62,4.62,0,1,1-4.62,4.62,4.63,4.63,0,0,1,4.62-4.62m0-.4a5,5,0,1,0,5,5,5,5,0,0,0-5-5Z" transform="translate(-171.68 -187)"/><path class="cls-5" d="M549.67,339.85a4.21,4.21,0,0,1,.17,4.07" transform="translate(-171.68 -187)"/><path class="cls-6" d="M542.1,340.67a4.21,4.21,0,0,1,2.82-2.67" transform="translate(-171.68 -187)"/><path class="cls-7" d="M546.08,346.24a4.2,4.2,0,0,1-3.48-1.85" transform="translate(-171.68 -187)"/><path class="cls-4" d="M535.18,337.42a4.62,4.62,0,1,1-4.62,4.62,4.63,4.63,0,0,1,4.62-4.62m0-.4a5,5,0,1,0,5,5,5,5,0,0,0-5-5Z" transform="translate(-171.68 -187)"/><path class="cls-8" d="M539.29,343a4.21,4.21,0,0,1-2.28,2.86" transform="translate(-171.68 -187)"/><path class="cls-5" d="M537.34,338.43a4.2,4.2,0,0,0-5.23.74" transform="translate(-171.68 -187)"/><path class="cls-7" d="M531,342.44q0-.2,0-.4a4.18,4.18,0,0,1,.84-2.52" transform="translate(-171.68 -187)"/><path class="cls-4" d="M524.29,337.42a4.62,4.62,0,1,1-4.62,4.62,4.63,4.63,0,0,1,4.62-4.62m0-.4a5,5,0,1,0,5,5,5,5,0,0,0-5-5Z" transform="translate(-171.68 -187)"/><path class="cls-5" d="M522.85,346a4.2,4.2,0,0,1,1.45-8.15" transform="translate(-171.68 -187)"/><path class="cls-5" d="M524.29,346.24a4.2,4.2,0,0,1,0-8.4" transform="translate(-171.68 -187)"/><path class="cls-7" d="M528.5,342a4.2,4.2,0,0,1-3,4" transform="translate(-171.68 -187)"/><path class="cls-4" d="M513.4,337.42a4.62,4.62,0,1,1-4.62,4.62,4.63,4.63,0,0,1,4.62-4.62m0-.4a5,5,0,1,0,5,5,5,5,0,0,0-5-5Z" transform="translate(-171.68 -187)"/><path class="cls-5" d="M513.4,337.84a4.2,4.2,0,0,1,3.76,6.09" transform="translate(-171.68 -187)"/><path class="cls-7" d="M509.23,341.5a4.2,4.2,0,0,1,1.82-2.95" transform="translate(-171.68 -187)"/><path class="cls-6" d="M516.74,344.59a4.2,4.2,0,0,1-7-.47" transform="translate(-171.68 -187)"/></g><g id="Layer_5" data-name="Layer 5"><rect class="cls-9" x="322.82" y="230" width="159.5" height="21"/><rect class="cls-9" x="322.82" y="251" width="159.5" height="21"/><rect class="cls-10" x="322.82" y="272" width="159.5" height="21"/><rect class="cls-9" x="322.82" y="293" width="159.5" height="21"/><rect class="cls-9" x="322.82" y="314" width="159.5" height="21"/><rect class="cls-9" x="322.82" y="335" width="159.5" height="21"/><rect class="cls-9" x="322.82" y="356" width="159.5" height="21"/><rect class="cls-9" x="322.82" y="377" width="159.5" height="21"/><rect class="cls-9" x="322.82" y="188" width="159.5" height="21"/><rect class="cls-9" x="322.82" y="209" width="159.5" height="21"/></g><g id="lines"><line class="cls-11" x1="322.82" y1="208.5" x2="482.32" y2="208.5"/><line class="cls-11" x1="322.82" y1="229.5" x2="482.32" y2="229.5"/><line class="cls-11" x1="322.82" y1="250.5" x2="482.32" y2="250.5"/><line class="cls-11" x1="322.82" y1="313.5" x2="482.32" y2="313.5"/><line class="cls-11" x1="322.82" y1="334.5" x2="482.32" y2="334.5"/><line class="cls-11" x1="322.82" y1="355.5" x2="482.32" y2="355.5"/><line class="cls-11" x1="322.82" y1="376.5" x2="482.32" y2="376.5"/></g><circle class="cls-12" cx="402.32" cy="155" r="6"/><circle class="cls-13" cx="470.32" cy="155" r="6"/></g><g id="Sequence_-_Circular_copy" data-name="Sequence - Circular copy"><circle class="cls-14" cx="659.32" cy="314.02" r="140.88"/><path class="cls-15" d="M821.65,382.64q4.63-.36,9.35-.36a118.74,118.74,0,1,1-67.29,216.59" transform="translate(-171.68 -187)"/><path class="cls-16" d="M770,602.93a118.8,118.8,0,0,1-39.46-165.3" transform="translate(-171.68 -187)"/><path class="cls-17" d="M750.9,413.36a118.65,118.65,0,0,1,42.54-25" transform="translate(-171.68 -187)"/><path class="cls-18" d="M854,607.94A109.41,109.41,0,0,1,731,456.8" transform="translate(-171.68 -187)"/><path class="cls-19" d="M874.64,380.51a128.28,128.28,0,0,1,75.82,167" transform="translate(-171.68 -187)"/><line class="cls-20" x1="709.57" y1="173" x2="694.94" y2="216.21"/><line class="cls-20" x1="799.31" y1="369.27" x2="756.81" y2="352.69"/></g><g id="Text"><path class="cls-2" d="M175.91,811.35q-4.23-4.29-4.23-12.63V772.44h3.72v26.7q0,13.2,12.9,13.2,6.3,0,9.57-3.33t3.27-9.87v-26.7h3.66v26.28q0,8.34-4.2,12.63t-12.3,4.29Q180.14,815.64,175.91,811.35Z" transform="translate(-171.68 -187)"/><path class="cls-2" d="M213.2,811.56l1.32-2.82a15.74,15.74,0,0,0,4.83,2.82,17.13,17.13,0,0,0,5.61.84,10.3,10.3,0,0,0,5.67-1.29,4.22,4.22,0,0,0,2-3.75,4.12,4.12,0,0,0-1.29-3.21,9.85,9.85,0,0,0-4.23-1.89l-5.1-1.14a11.12,11.12,0,0,1-5.67-3,7.06,7.06,0,0,1-2.07-5,7.63,7.63,0,0,1,3-6.33,12.75,12.75,0,0,1,8.07-2.37,16.76,16.76,0,0,1,5.91,1,11.73,11.73,0,0,1,4.53,2.94l-1.38,2.82a13.52,13.52,0,0,0-9.06-3.6,9.13,9.13,0,0,0-5.4,1.38,4.46,4.46,0,0,0-1.92,3.84,4.52,4.52,0,0,0,1.23,3.3,7.64,7.64,0,0,0,3.81,1.86l5.16,1.26q8.1,1.8,8.1,8a7.22,7.22,0,0,1-3.12,6.09,13.81,13.81,0,0,1-8.4,2.31Q217.46,815.58,213.2,811.56Z" transform="translate(-171.68 -187)"/><path class="cls-2" d="M246.56,799.68v.18q0,6.06,2.79,9.27t8.13,3.21a15.19,15.19,0,0,0,9.9-3.72l1.44,2.88a14.43,14.43,0,0,1-5,3,18.33,18.33,0,0,1-6.3,1.11q-6.84,0-10.8-4.14t-4-11.4a18.2,18.2,0,0,1,1.77-8.19,13.16,13.16,0,0,1,4.95-5.52,13.73,13.73,0,0,1,7.32-2q5.94,0,9.27,3.84t3.33,10.68v.78Zm3.48-9.81a11.74,11.74,0,0,0-3.24,7h19.08a11.07,11.07,0,0,0-2.7-7,8.49,8.49,0,0,0-6.42-2.43A9.27,9.27,0,0,0,250,789.87Z" transform="translate(-171.68 -187)"/><path class="cls-2" d="M297.62,788v17.88q0,3.6,1.38,5a5.53,5.53,0,0,0,4.08,1.38,9.83,9.83,0,0,0,3.24-.54V815a16.05,16.05,0,0,1-3.9.48,8.46,8.46,0,0,1-6.21-2.22q-2.25-2.22-2.25-6.66V788H288V785.1H294v-8l3.66-1.38v9.36h8.88V788Z" transform="translate(-171.68 -187)"/><path class="cls-2" d="M337.58,796v19.14h-3.66v-18.9q0-4.5-1.83-6.6t-5.73-2.1a9.82,9.82,0,0,0-7.26,2.76,10.05,10.05,0,0,0-2.76,7.44v17.4h-3.6V771h3.6v19.32a9.92,9.92,0,0,1,4.14-4.44,12.64,12.64,0,0,1,6.24-1.5Q337.58,784.38,337.58,796Z" transform="translate(-171.68 -187)"/><path class="cls-2" d="M349.34,799.68v.18q0,6.06,2.79,9.27t8.13,3.21a15.19,15.19,0,0,0,9.9-3.72l1.44,2.88a14.43,14.43,0,0,1-5,3,18.33,18.33,0,0,1-6.3,1.11q-6.84,0-10.8-4.14t-4-11.4a18.2,18.2,0,0,1,1.77-8.19,13.16,13.16,0,0,1,4.95-5.52,13.73,13.73,0,0,1,7.32-2q5.94,0,9.27,3.84t3.33,10.68v.78Zm3.48-9.81a11.74,11.74,0,0,0-3.24,7h19.08a11.07,11.07,0,0,0-2.7-7,8.49,8.49,0,0,0-6.42-2.43A9.27,9.27,0,0,0,352.82,789.87Z" transform="translate(-171.68 -187)"/><path class="cls-10" d="M420.92,796.2v19h-4.86V796.44q0-4.2-1.68-6.15t-5.28-2a9,9,0,0,0-6.72,2.58,9.53,9.53,0,0,0-2.52,7v17.28H395V793.44a67.72,67.72,0,0,0-.48-8.46h4.62l.48,5.4a10,10,0,0,1,4.14-4.53,12.39,12.39,0,0,1,6.3-1.59Q420.92,784.26,420.92,796.2Z" transform="translate(-171.68 -187)"/><path class="cls-10" d="M456.68,785v30.18h-4.8V809.7a9.56,9.56,0,0,1-4,4.35,12.27,12.27,0,0,1-6.21,1.53,12.88,12.88,0,0,1-7-1.92,12.58,12.58,0,0,1-4.68-5.43,21.12,21.12,0,0,1,0-16.44,13.12,13.12,0,0,1,4.71-5.55,12.49,12.49,0,0,1,7-2,11.93,11.93,0,0,1,6.18,1.56,10.15,10.15,0,0,1,4,4.38V785Zm-7.2,23.55q2.4-3,2.4-8.61t-2.4-8.58a8.26,8.26,0,0,0-6.84-3,8.4,8.4,0,0,0-6.93,3.09q-2.49,3.09-2.49,8.61t2.46,8.52a8.49,8.49,0,0,0,7,3A8.22,8.22,0,0,0,449.48,808.53Z" transform="translate(-171.68 -187)"/><path class="cls-10" d="M487.76,785h4.86l-13,30.12H475L462.14,785h5.1l10.2,24.84Z" transform="translate(-171.68 -187)"/><path class="cls-10" d="M497.48,772.2h5.94v5.52h-5.94Zm.48,43V785h4.86v30.18Z" transform="translate(-171.68 -187)"/><path class="cls-10" d="M539.12,785v29.94q0,6.72-3.45,10.17t-10.17,3.45a21.92,21.92,0,0,1-11.88-3.12l.84-4a25.08,25.08,0,0,0,5.43,2.34,20.58,20.58,0,0,0,5.61.72q4.38,0,6.6-2.31t2.22-6.87V808.2a10.21,10.21,0,0,1-4,4.47,12.14,12.14,0,0,1-6.33,1.59,13.4,13.4,0,0,1-7-1.86,12.35,12.35,0,0,1-4.77-5.28,19.22,19.22,0,0,1,0-15.72,12.35,12.35,0,0,1,4.77-5.28,13.41,13.41,0,0,1,7-1.86,12.21,12.21,0,0,1,6.27,1.56,10.11,10.11,0,0,1,4.05,4.38V785Zm-7.35,22.29q2.49-2.91,2.49-8t-2.49-8a8.56,8.56,0,0,0-6.87-2.91,8.81,8.81,0,0,0-7,2.91q-2.55,2.91-2.55,8t2.55,8a8.81,8.81,0,0,0,7,2.91A8.56,8.56,0,0,0,531.77,807.27Z" transform="translate(-171.68 -187)"/><path class="cls-10" d="M575.05,785v30.18h-4.8V809.7a9.56,9.56,0,0,1-4,4.35,12.27,12.27,0,0,1-6.21,1.53,12.88,12.88,0,0,1-7-1.92,12.58,12.58,0,0,1-4.68-5.43,21.12,21.12,0,0,1,0-16.44,13.12,13.12,0,0,1,4.71-5.55,12.49,12.49,0,0,1,7-2,11.93,11.93,0,0,1,6.18,1.56,10.15,10.15,0,0,1,4,4.38V785Zm-7.2,23.55q2.4-3,2.4-8.61t-2.4-8.58a8.26,8.26,0,0,0-6.84-3,8.4,8.4,0,0,0-6.93,3.09q-2.49,3.09-2.49,8.61t2.46,8.52a8.49,8.49,0,0,0,7,3A8.22,8.22,0,0,0,567.85,808.53Z" transform="translate(-171.68 -187)"/><path class="cls-10" d="M591,788.82v16.5q0,3.36,1.38,4.71a5.34,5.34,0,0,0,3.9,1.35,9.83,9.83,0,0,0,3.24-.54V815a13.67,13.67,0,0,1-4.2.6,9.12,9.12,0,0,1-6.75-2.43q-2.43-2.43-2.43-7.17V788.82h-5.88V785h5.88v-7.74L591,775.5V785h8.64v3.84Z" transform="translate(-171.68 -187)"/><path class="cls-10" d="M610.45,813.66a12.87,12.87,0,0,1-5-5.46,20.25,20.25,0,0,1,0-16.56,12.88,12.88,0,0,1,5-5.46,15.61,15.61,0,0,1,15,0,12.88,12.88,0,0,1,5,5.46,20.25,20.25,0,0,1,0,16.56,12.87,12.87,0,0,1-5,5.46,15.61,15.61,0,0,1-15,0Zm14.4-5.07q2.4-3,2.4-8.67,0-5.52-2.46-8.55a9.3,9.3,0,0,0-13.74,0q-2.46,3-2.46,8.55,0,5.7,2.43,8.67a8.44,8.44,0,0,0,6.93,3A8.36,8.36,0,0,0,624.85,808.59Z" transform="translate(-171.68 -187)"/><path class="cls-10" d="M656.59,784.62l-.12,4.44a9.66,9.66,0,0,0-3.18-.48q-4.38,0-6.51,2.73a10.45,10.45,0,0,0-2.13,6.63v17.22h-4.86V793.44a67.72,67.72,0,0,0-.48-8.46h4.62l.48,5.58a9.18,9.18,0,0,1,3.66-4.68,10.42,10.42,0,0,1,5.76-1.62A10,10,0,0,1,656.59,784.62Z" transform="translate(-171.68 -187)"/><path class="cls-2" d="M682.57,788v17.88q0,3.6,1.38,5a5.53,5.53,0,0,0,4.08,1.38,9.83,9.83,0,0,0,3.24-.54V815a16.05,16.05,0,0,1-3.9.48,8.46,8.46,0,0,1-6.21-2.22q-2.25-2.22-2.25-6.66V788H673V785.1h5.94v-8l3.66-1.38v9.36h8.88V788Z" transform="translate(-171.68 -187)"/><path class="cls-2" d="M702.34,813.66a12.67,12.67,0,0,1-4.86-5.46,20.61,20.61,0,0,1,0-16.44,12.69,12.69,0,0,1,4.86-5.46,13.73,13.73,0,0,1,7.29-1.92,13.47,13.47,0,0,1,7.2,1.92,12.76,12.76,0,0,1,4.83,5.46,20.61,20.61,0,0,1,0,16.44,12.74,12.74,0,0,1-4.83,5.46,13.46,13.46,0,0,1-7.2,1.92A13.72,13.72,0,0,1,702.34,813.66ZM717,809.13q2.61-3.21,2.61-9.15T717,790.83a9.9,9.9,0,0,0-14.7,0q-2.64,3.27-2.64,9.15t2.58,9.18a10.16,10.16,0,0,0,14.79,0Z" transform="translate(-171.68 -187)"/><path class="cls-2" d="M744.91,811.56l1.32-2.82a15.74,15.74,0,0,0,4.83,2.82,17.13,17.13,0,0,0,5.61.84,10.3,10.3,0,0,0,5.67-1.29,4.22,4.22,0,0,0,1.95-3.75,4.11,4.11,0,0,0-1.29-3.21,9.85,9.85,0,0,0-4.23-1.89l-5.1-1.14a11.12,11.12,0,0,1-5.67-3,7.06,7.06,0,0,1-2.07-5,7.63,7.63,0,0,1,3-6.33,12.75,12.75,0,0,1,8.07-2.37,16.76,16.76,0,0,1,5.91,1,11.73,11.73,0,0,1,4.53,2.94l-1.38,2.82a13.52,13.52,0,0,0-9.06-3.6,9.13,9.13,0,0,0-5.4,1.38,4.46,4.46,0,0,0-1.92,3.84,4.52,4.52,0,0,0,1.23,3.3,7.64,7.64,0,0,0,3.81,1.86l5.16,1.26q8.1,1.8,8.1,8a7.23,7.23,0,0,1-3.12,6.09,13.81,13.81,0,0,1-8.4,2.31Q749.17,815.58,744.91,811.56Z" transform="translate(-171.68 -187)"/><path class="cls-2" d="M778.27,799.68v.18q0,6.06,2.79,9.27t8.13,3.21a15.19,15.19,0,0,0,9.9-3.72l1.44,2.88a14.43,14.43,0,0,1-5,3,18.33,18.33,0,0,1-6.3,1.11q-6.84,0-10.8-4.14t-4-11.4a18.19,18.19,0,0,1,1.77-8.19,13.16,13.16,0,0,1,5-5.52,13.72,13.72,0,0,1,7.32-2q5.94,0,9.27,3.84t3.33,10.68v.78Zm3.48-9.81a11.75,11.75,0,0,0-3.24,7h19.08a11.07,11.07,0,0,0-2.7-7,8.49,8.49,0,0,0-6.42-2.43A9.27,9.27,0,0,0,781.75,789.87Z" transform="translate(-171.68 -187)"/><path class="cls-2" d="M808.93,815.16V771h3.6v44.16Z" transform="translate(-171.68 -187)"/><path class="cls-2" d="M824.53,799.68v.18q0,6.06,2.79,9.27t8.13,3.21a15.19,15.19,0,0,0,9.9-3.72l1.44,2.88a14.43,14.43,0,0,1-5,3,18.33,18.33,0,0,1-6.3,1.11q-6.84,0-10.8-4.14t-4-11.4a18.19,18.19,0,0,1,1.77-8.19,13.16,13.16,0,0,1,5-5.52,13.72,13.72,0,0,1,7.32-2q5.94,0,9.27,3.84t3.33,10.68v.78Zm3.48-9.81a11.75,11.75,0,0,0-3.24,7h19.08a11.07,11.07,0,0,0-2.7-7,8.49,8.49,0,0,0-6.42-2.43A9.27,9.27,0,0,0,828,789.87Z" transform="translate(-171.68 -187)"/><path class="cls-2" d="M859.93,813.66a12.84,12.84,0,0,1-4.92-5.43,18.08,18.08,0,0,1-1.74-8.13,18.61,18.61,0,0,1,1.74-8.25,12.85,12.85,0,0,1,5-5.52,14.27,14.27,0,0,1,7.5-2,16.49,16.49,0,0,1,5.85,1,12.32,12.32,0,0,1,4.59,2.91l-1.44,2.88a17.89,17.89,0,0,0-4.47-2.79,11.57,11.57,0,0,0-4.41-.87,9.53,9.53,0,0,0-7.68,3.33q-2.82,3.33-2.82,9.21t2.79,9a9.64,9.64,0,0,0,7.71,3.24,11.53,11.53,0,0,0,4.41-.87,18.64,18.64,0,0,0,4.47-2.73l1.44,2.82a13.75,13.75,0,0,1-4.77,2.94,16.23,16.23,0,0,1-5.79,1.08A14.11,14.11,0,0,1,859.93,813.66Z" transform="translate(-171.68 -187)"/><path class="cls-2" d="M889.69,788v17.88q0,3.6,1.38,5a5.53,5.53,0,0,0,4.08,1.38,9.84,9.84,0,0,0,3.24-.54V815a16.06,16.06,0,0,1-3.9.48,8.46,8.46,0,0,1-6.21-2.22q-2.25-2.22-2.25-6.66V788h-5.94V785.1H886v-8l3.66-1.38v9.36h8.88V788Z" transform="translate(-171.68 -187)"/><path class="cls-2" d="M945.61,785.1v30.06h-3.66V809.4a9.76,9.76,0,0,1-4,4.59,12.26,12.26,0,0,1-6.39,1.59,13,13,0,0,1-7.05-1.89,12.4,12.4,0,0,1-4.68-5.4,21.12,21.12,0,0,1,0-16.44,12.92,12.92,0,0,1,4.71-5.52,12.64,12.64,0,0,1,7-2,12.33,12.33,0,0,1,6.33,1.56,9.92,9.92,0,0,1,4.05,4.56v-5.4Zm-6.24,24q2.58-3.24,2.58-9.12t-2.58-9.18a9.87,9.87,0,0,0-14.7.09Q922,794.22,922,800.1t2.64,9a9.09,9.09,0,0,0,7.44,3.21A8.75,8.75,0,0,0,939.37,809.1Z" transform="translate(-171.68 -187)"/><path class="cls-2" d="M980.41,796v19.14h-3.66v-18.9q0-4.5-1.83-6.6t-5.73-2.1a9.82,9.82,0,0,0-7.26,2.76,10.05,10.05,0,0,0-2.76,7.44v17.4h-3.6V793.44a64.82,64.82,0,0,0-.48-8.34h3.48l.48,5.52a9.9,9.9,0,0,1,4.14-4.65,12.53,12.53,0,0,1,6.36-1.59Q980.41,784.38,980.41,796Z" transform="translate(-171.68 -187)"/><path class="cls-2" d="M1015.75,771v44.16h-3.66V809.4a9.76,9.76,0,0,1-4,4.59,12.26,12.26,0,0,1-6.39,1.59,12.62,12.62,0,0,1-7-2,12.9,12.9,0,0,1-4.71-5.52,21.12,21.12,0,0,1,0-16.44,12.39,12.39,0,0,1,4.68-5.4,13,13,0,0,1,7.05-1.89,12.33,12.33,0,0,1,6.33,1.56,9.92,9.92,0,0,1,4.05,4.56V771Zm-6.24,38.1q2.58-3.24,2.58-9.12t-2.58-9.15a8.72,8.72,0,0,0-7.26-3.27,9.06,9.06,0,0,0-7.44,3.24q-2.64,3.24-2.64,9.06t2.64,9.18a8.92,8.92,0,0,0,7.38,3.3A8.82,8.82,0,0,0,1009.51,809.1Z" transform="translate(-171.68 -187)"/><path class="cls-2" d="M1062.79,785.1h3.72l-12.9,30.06h-3.78l-12.72-30.06h3.9l10.86,26.4Z" transform="translate(-171.68 -187)"/><path class="cls-2" d="M1072,772.68h4.86v4.68H1072Zm.54,42.48V785.1h3.6v30.06Z" transform="translate(-171.68 -187)"/><path class="cls-2" d="M1088.11,799.68v.18q0,6.06,2.79,9.27t8.13,3.21a15.19,15.19,0,0,0,9.9-3.72l1.44,2.88a14.43,14.43,0,0,1-5,3,18.33,18.33,0,0,1-6.3,1.11q-6.84,0-10.8-4.14t-4-11.4a18.19,18.19,0,0,1,1.77-8.19,13.16,13.16,0,0,1,5-5.52,13.72,13.72,0,0,1,7.32-2q5.94,0,9.27,3.84t3.33,10.68v.78Zm3.48-9.81a11.75,11.75,0,0,0-3.24,7h19.08a11.07,11.07,0,0,0-2.7-7,8.49,8.49,0,0,0-6.42-2.43A9.27,9.27,0,0,0,1091.59,789.87Z" transform="translate(-171.68 -187)"/><path class="cls-2" d="M1159.51,785.1h3.72l-10.92,30.06h-3.78l-9.12-25.38-9.18,25.38h-3.84l-10.86-30.06h3.9l8.88,25.68,9.36-25.68h3.66l9.06,25.68Z" transform="translate(-171.68 -187)"/><path class="cls-2" d="M1211,785.1v30.06h-3.66V809.4a9.76,9.76,0,0,1-4,4.59,12.26,12.26,0,0,1-6.39,1.59,13,13,0,0,1-7.05-1.89,12.4,12.4,0,0,1-4.68-5.4,21.12,21.12,0,0,1,0-16.44,12.92,12.92,0,0,1,4.71-5.52,12.64,12.64,0,0,1,7-2,12.33,12.33,0,0,1,6.33,1.56,9.92,9.92,0,0,1,4.05,4.56v-5.4Zm-6.24,24q2.58-3.24,2.58-9.12t-2.58-9.18a9.87,9.87,0,0,0-14.7.09q-2.64,3.33-2.64,9.21t2.64,9a9.09,9.09,0,0,0,7.44,3.21A8.75,8.75,0,0,0,1204.81,809.1Z" transform="translate(-171.68 -187)"/><path class="cls-2" d="M1257.33,786.33a12.93,12.93,0,0,1,4.71,5.52,19.17,19.17,0,0,1,1.68,8.25,18.87,18.87,0,0,1-1.65,8.16,12.55,12.55,0,0,1-4.71,5.4,12.93,12.93,0,0,1-7,1.92,12,12,0,0,1-6.45-1.65,10,10,0,0,1-4-4.77v19h-3.6V793.44a64.82,64.82,0,0,0-.48-8.34h3.48l.48,5.88a10.21,10.21,0,0,1,4-4.89,12,12,0,0,1,6.51-1.71A12.64,12.64,0,0,1,1257.33,786.33Zm-.09,22.8q2.64-3.21,2.64-9t-2.64-9.21a9.87,9.87,0,0,0-14.7-.09Q1240,794,1240,800t2.58,9.12a8.82,8.82,0,0,0,7.32,3.24A9,9,0,0,0,1257.24,809.13Z" transform="translate(-171.68 -187)"/><path class="cls-2" d="M1297.26,785.1v30.06h-3.66V809.4a9.76,9.76,0,0,1-4,4.59,12.26,12.26,0,0,1-6.39,1.59,13,13,0,0,1-7.05-1.89,12.4,12.4,0,0,1-4.68-5.4,21.12,21.12,0,0,1,0-16.44,12.92,12.92,0,0,1,4.71-5.52,12.64,12.64,0,0,1,7-2,12.33,12.33,0,0,1,6.33,1.56,9.92,9.92,0,0,1,4.05,4.56v-5.4Zm-6.24,24q2.58-3.24,2.58-9.12T1291,790.8a9.87,9.87,0,0,0-14.7.09q-2.64,3.33-2.64,9.21t2.64,9a9.09,9.09,0,0,0,7.44,3.21A8.75,8.75,0,0,0,1291,809.1Z" transform="translate(-171.68 -187)"/><path class="cls-2" d="M1322.82,784.62l-.18,3.3a13.69,13.69,0,0,0-2.76-.24q-4.56,0-6.81,2.91a11,11,0,0,0-2.25,6.93v17.64h-3.6V793.44a64.82,64.82,0,0,0-.48-8.34h3.48l.48,5.58a9.13,9.13,0,0,1,3.69-4.68,10.56,10.56,0,0,1,5.79-1.62A13,13,0,0,1,1322.82,784.62Z" transform="translate(-171.68 -187)"/><path class="cls-2" d="M1335.42,788v17.88q0,3.6,1.38,5a5.53,5.53,0,0,0,4.08,1.38,9.84,9.84,0,0,0,3.24-.54V815a16.06,16.06,0,0,1-3.9.48,8.46,8.46,0,0,1-6.21-2.22q-2.25-2.22-2.25-6.66V788h-5.94V785.1h5.94v-8l3.66-1.38v9.36h8.88V788Z" transform="translate(-171.68 -187)"/><path class="cls-2" d="M1350.36,809.94h5.1v5.22h-5.1Z" transform="translate(-171.68 -187)"/><path class="cls-2" d="M453.95,188.44l-16.5,25.14v17.58h-3.72v-17.7l-16.5-25h4.32l14.1,21.78,14.1-21.78Z" transform="translate(-171.68 -187)"/><path class="cls-2" d="M458.59,229.66a12.67,12.67,0,0,1-4.86-5.46,20.61,20.61,0,0,1,0-16.44,12.69,12.69,0,0,1,4.86-5.46,13.73,13.73,0,0,1,7.29-1.92,13.47,13.47,0,0,1,7.2,1.92,12.76,12.76,0,0,1,4.83,5.46,20.61,20.61,0,0,1,0,16.44,12.74,12.74,0,0,1-4.83,5.46,13.46,13.46,0,0,1-7.2,1.92A13.72,13.72,0,0,1,458.59,229.66Zm14.64-4.53q2.61-3.21,2.61-9.15t-2.64-9.15a9.9,9.9,0,0,0-14.7,0q-2.64,3.27-2.64,9.15t2.58,9.18a10.16,10.16,0,0,0,14.79,0Z" transform="translate(-171.68 -187)"/><path class="cls-2" d="M511.84,201.1v30.06H508.3V225.7a10.07,10.07,0,0,1-4.08,4.38,12.05,12.05,0,0,1-6.06,1.5q-5.28,0-8-2.94t-2.7-8.7V201.1h3.6v18.6q0,4.44,1.8,6.54t5.58,2.1a9.29,9.29,0,0,0,7.08-2.79,10.34,10.34,0,0,0,2.64-7.41v-17Z" transform="translate(-171.68 -187)"/><path class="cls-2" d="M537.4,200.62l-.18,3.3a13.67,13.67,0,0,0-2.76-.24q-4.56,0-6.81,2.91a11,11,0,0,0-2.25,6.93v17.64h-3.6V209.44a64.74,64.74,0,0,0-.48-8.34h3.48l.48,5.58A9.13,9.13,0,0,1,529,202a10.56,10.56,0,0,1,5.79-1.62A13,13,0,0,1,537.4,200.62Z" transform="translate(-171.68 -187)"/><path class="cls-2" d="M599.08,201.1h3.72l-10.92,30.06H588.1L579,205.78l-9.18,25.38H566L555.1,201.1H559l8.88,25.68,9.36-25.68h3.66L590,226.78Z" transform="translate(-171.68 -187)"/><path class="cls-2" d="M614.17,229.66a12.67,12.67,0,0,1-4.86-5.46,20.61,20.61,0,0,1,0-16.44,12.69,12.69,0,0,1,4.86-5.46,13.73,13.73,0,0,1,7.29-1.92,13.47,13.47,0,0,1,7.2,1.92,12.76,12.76,0,0,1,4.83,5.46,20.61,20.61,0,0,1,0,16.44,12.74,12.74,0,0,1-4.83,5.46,13.46,13.46,0,0,1-7.2,1.92A13.72,13.72,0,0,1,614.17,229.66Zm14.64-4.53q2.61-3.21,2.61-9.15t-2.64-9.15a9.9,9.9,0,0,0-14.7,0q-2.64,3.27-2.64,9.15t2.58,9.18a10.16,10.16,0,0,0,14.79,0Z" transform="translate(-171.68 -187)"/><path class="cls-2" d="M658.84,200.62l-.18,3.3a13.67,13.67,0,0,0-2.76-.24q-4.56,0-6.81,2.91a11,11,0,0,0-2.25,6.93v17.64h-3.6V209.44a64.74,64.74,0,0,0-.48-8.34h3.48l.48,5.58a9.13,9.13,0,0,1,3.69-4.68,10.56,10.56,0,0,1,5.79-1.62A13,13,0,0,1,658.84,200.62Z" transform="translate(-171.68 -187)"/><path class="cls-2" d="M689.32,231.16h-5l-16.56-14.64v14.64h-3.6V187h3.6v28.08l15.12-14h4.74l-15.72,14.46Z" transform="translate(-171.68 -187)"/><path class="cls-2" d="M691.66,227.56l1.32-2.82a15.74,15.74,0,0,0,4.83,2.82,17.13,17.13,0,0,0,5.61.84,10.3,10.3,0,0,0,5.67-1.29,4.22,4.22,0,0,0,2-3.75,4.12,4.12,0,0,0-1.29-3.21,9.85,9.85,0,0,0-4.23-1.89l-5.1-1.14a11.12,11.12,0,0,1-5.67-3,7.06,7.06,0,0,1-2.07-5,7.63,7.63,0,0,1,3-6.33,12.75,12.75,0,0,1,8.07-2.37,16.76,16.76,0,0,1,5.91,1,11.73,11.73,0,0,1,4.53,2.94l-1.38,2.82a13.52,13.52,0,0,0-9.06-3.6,9.13,9.13,0,0,0-5.4,1.38,4.46,4.46,0,0,0-1.92,3.84,4.52,4.52,0,0,0,1.23,3.3,7.64,7.64,0,0,0,3.81,1.86l5.16,1.26q8.1,1.8,8.1,8a7.22,7.22,0,0,1-3.12,6.09,13.81,13.81,0,0,1-8.4,2.31Q695.92,231.58,691.66,227.56Z" transform="translate(-171.68 -187)"/><path class="cls-2" d="M744.13,202.33a12.93,12.93,0,0,1,4.71,5.52,19.18,19.18,0,0,1,1.68,8.25,18.87,18.87,0,0,1-1.65,8.16,12.55,12.55,0,0,1-4.71,5.4,12.93,12.93,0,0,1-7,1.92,12,12,0,0,1-6.45-1.65,10,10,0,0,1-4-4.77v19h-3.6V209.44a64.74,64.74,0,0,0-.48-8.34h3.48l.48,5.88a10.21,10.21,0,0,1,4-4.89,12,12,0,0,1,6.51-1.71A12.64,12.64,0,0,1,744.13,202.33Zm-.09,22.8q2.64-3.21,2.64-9T744,206.89a9.87,9.87,0,0,0-14.7-.09q-2.58,3.24-2.58,9.18t2.58,9.12a8.82,8.82,0,0,0,7.32,3.24A9,9,0,0,0,744,225.13Z" transform="translate(-171.68 -187)"/><path class="cls-2" d="M784.06,201.1v30.06H780.4V225.4a9.76,9.76,0,0,1-4,4.59,12.26,12.26,0,0,1-6.39,1.59,13,13,0,0,1-7.05-1.89,12.4,12.4,0,0,1-4.68-5.4,21.12,21.12,0,0,1,0-16.44,12.92,12.92,0,0,1,4.71-5.52,12.64,12.64,0,0,1,7-2,12.33,12.33,0,0,1,6.33,1.56,9.92,9.92,0,0,1,4.05,4.56v-5.4Zm-6.24,24q2.58-3.24,2.58-9.12t-2.58-9.18a9.87,9.87,0,0,0-14.7.09q-2.64,3.33-2.64,9.21t2.64,9a9.09,9.09,0,0,0,7.44,3.21A8.75,8.75,0,0,0,777.82,225.1Z" transform="translate(-171.68 -187)"/><path class="cls-2" d="M798.76,229.66a12.84,12.84,0,0,1-4.92-5.43,18.08,18.08,0,0,1-1.74-8.13,18.61,18.61,0,0,1,1.74-8.25,12.85,12.85,0,0,1,5-5.52,14.27,14.27,0,0,1,7.5-2,16.49,16.49,0,0,1,5.85,1,12.32,12.32,0,0,1,4.59,2.91l-1.44,2.88a17.89,17.89,0,0,0-4.47-2.79,11.57,11.57,0,0,0-4.41-.87,9.53,9.53,0,0,0-7.68,3.33q-2.82,3.33-2.82,9.21t2.79,9a9.64,9.64,0,0,0,7.71,3.24,11.53,11.53,0,0,0,4.41-.87,18.64,18.64,0,0,0,4.47-2.73l1.44,2.82A13.75,13.75,0,0,1,812,230.5a16.23,16.23,0,0,1-5.79,1.08A14.11,14.11,0,0,1,798.76,229.66Z" transform="translate(-171.68 -187)"/><path class="cls-2" d="M825.34,215.68v.18q0,6.06,2.79,9.27t8.13,3.21a15.19,15.19,0,0,0,9.9-3.72l1.44,2.88a14.43,14.43,0,0,1-5,3,18.33,18.33,0,0,1-6.3,1.11q-6.84,0-10.8-4.14t-4-11.4a18.19,18.19,0,0,1,1.77-8.19,13.16,13.16,0,0,1,5-5.52,13.72,13.72,0,0,1,7.32-2q5.94,0,9.27,3.84t3.33,10.68v.78Zm3.48-9.81a11.75,11.75,0,0,0-3.24,7h19.08a11.07,11.07,0,0,0-2.7-7,8.49,8.49,0,0,0-6.42-2.43A9.27,9.27,0,0,0,828.82,205.87Z" transform="translate(-171.68 -187)"/><path class="cls-2" d="M870.76,188.68h4.86v4.68h-4.86Zm.54,42.48V201.1h3.6v30.06Z" transform="translate(-171.68 -187)"/><path class="cls-2" d="M883.18,227.56l1.32-2.82a15.74,15.74,0,0,0,4.83,2.82,17.13,17.13,0,0,0,5.61.84,10.3,10.3,0,0,0,5.67-1.29,4.22,4.22,0,0,0,1.95-3.75,4.11,4.11,0,0,0-1.29-3.21,9.85,9.85,0,0,0-4.23-1.89l-5.1-1.14a11.13,11.13,0,0,1-5.67-3,7.06,7.06,0,0,1-2.07-5,7.63,7.63,0,0,1,3-6.33,12.74,12.74,0,0,1,8.07-2.37,16.76,16.76,0,0,1,5.91,1,11.73,11.73,0,0,1,4.53,2.94l-1.38,2.82a13.52,13.52,0,0,0-9.06-3.6,9.13,9.13,0,0,0-5.4,1.38,4.46,4.46,0,0,0-1.92,3.84,4.52,4.52,0,0,0,1.23,3.3,7.64,7.64,0,0,0,3.81,1.86l5.16,1.26q8.1,1.8,8.1,8a7.23,7.23,0,0,1-3.12,6.09,13.81,13.81,0,0,1-8.4,2.31Q887.44,231.58,883.18,227.56Z" transform="translate(-171.68 -187)"/><path class="cls-2" d="M931.84,215.68v.18q0,6.06,2.79,9.27t8.13,3.21a15.19,15.19,0,0,0,9.9-3.72l1.44,2.88a14.43,14.43,0,0,1-5,3,18.33,18.33,0,0,1-6.3,1.11q-6.84,0-10.8-4.14T928,216a18.19,18.19,0,0,1,1.77-8.19,13.16,13.16,0,0,1,5-5.52,13.72,13.72,0,0,1,7.32-2q5.94,0,9.27,3.84t3.33,10.68v.78Zm3.48-9.81a11.75,11.75,0,0,0-3.24,7h19.08a11.07,11.07,0,0,0-2.7-7,8.49,8.49,0,0,0-6.42-2.43A9.27,9.27,0,0,0,935.32,205.87Z" transform="translate(-171.68 -187)"/><path class="cls-2" d="M1004.86,212v19.14h-3.66v-18.9q0-4.56-1.62-6.63t-5.16-2.07a8.13,8.13,0,0,0-6.51,2.76,11.13,11.13,0,0,0-2.37,7.5v17.34h-3.66v-18.9q0-4.56-1.65-6.63T975,203.56a8.24,8.24,0,0,0-6.51,2.76,11,11,0,0,0-2.43,7.5v17.34h-3.6V209.44a64.82,64.82,0,0,0-.48-8.34h3.48l.48,5.4a9.57,9.57,0,0,1,3.75-4.56,10.67,10.67,0,0,1,5.79-1.56q7.26,0,9.3,5.88a9.44,9.44,0,0,1,3.93-4.32,12,12,0,0,1,6.15-1.56Q1004.86,200.38,1004.86,212Z" transform="translate(-171.68 -187)"/><path class="cls-2" d="M1035.67,202.33a12.93,12.93,0,0,1,4.71,5.52,19.17,19.17,0,0,1,1.68,8.25,18.87,18.87,0,0,1-1.65,8.16,12.55,12.55,0,0,1-4.71,5.4,12.93,12.93,0,0,1-7,1.92,12,12,0,0,1-6.45-1.65,10,10,0,0,1-4-4.77v19h-3.6V209.44a64.82,64.82,0,0,0-.48-8.34h3.48l.48,5.88a10.21,10.21,0,0,1,4-4.89,12,12,0,0,1,6.51-1.71A12.64,12.64,0,0,1,1035.67,202.33Zm-.09,22.8q2.64-3.21,2.64-9t-2.64-9.21a9.87,9.87,0,0,0-14.7-.09q-2.58,3.24-2.58,9.18t2.58,9.12a8.82,8.82,0,0,0,7.32,3.24A9,9,0,0,0,1035.58,225.13Z" transform="translate(-171.68 -187)"/><path class="cls-2" d="M1055.2,204v17.88q0,3.6,1.38,5a5.53,5.53,0,0,0,4.08,1.38,9.84,9.84,0,0,0,3.24-.54V231a16.06,16.06,0,0,1-3.9.48,8.46,8.46,0,0,1-6.21-2.22q-2.25-2.22-2.25-6.66V204h-5.94V201.1h5.94v-8l3.66-1.38v9.36h8.88V204Z" transform="translate(-171.68 -187)"/><path class="cls-2" d="M1096.12,201.1,1082,234.28a17,17,0,0,1-5.25,7.23,19.84,19.84,0,0,1-7.89,3.27l-.72-2.88a18.09,18.09,0,0,0,6.51-2.64,12.13,12.13,0,0,0,3.69-5.1l1.26-2.94-12.84-30.12h3.9l10.86,26.4,10.92-26.4Z" transform="translate(-171.68 -187)"/><path class="cls-2" d="M1099.12,225.94h5.1v5.22h-5.1Z" transform="translate(-171.68 -187)"/></g><g id="Pointer"><line class="cls-21" x1="343.32" y1="566" x2="397.52" y2="322.96"/><polygon class="cls-22" points="415.54 344.24 395.91 330.19 372.17 334.57 405.32 288 415.54 344.24"/></g></svg>